<svg width="800" height="800" viewBox="0 0 800 800" fill="none" xmlns="http://www.w3.org/2000/svg">
<path d="M357.735 291.56C349.906 294.637 344 303.143 344 311.344L344 339.397C344 349.058 352.096 354.356 361.319 350.732L441.265 319.317C449.094 316.241 455 307.734 455 299.533L455 271.48C455 261.819 446.904 256.521 437.681 260.146L357.735 291.56Z" fill="#FFC300"/>
<path d="M357.735 359.637C349.906 356.517 344 347.891 344 339.576L344 313.499C344 302.123 349.594 293.104 358.778 289.675L368.13 286.183C361.446 287.062 362.567 297.69 369.661 300.705L443.655 332.144C450.162 334.908 455 342.118 455 349.051L455 379.998C455 389.794 446.904 395.166 437.681 391.491L357.735 359.637Z" fill="#8759F2"/>
<path fill-rule="evenodd" clip-rule="evenodd" d="M364.948 288.45C362.197 291.758 364.076 298.846 369.682 301.213L425.655 324.845L361.333 349.86C352.102 353.45 344 348.202 344 338.633L344 313.937C344 308.277 345.401 303.204 347.952 299.12C350.408 295.629 353.838 292.771 357.746 291.251L364.948 288.45Z" fill="#FF3E80"/>
<path d="M385.402 483.406L399.254 494.375L392.609 500.141L378.969 489.172L385.402 483.406ZM399.605 464.211V466.637C399.605 470.527 399.078 474.02 398.023 477.113C396.992 480.207 395.504 482.844 393.559 485.023C391.613 487.18 389.316 488.832 386.668 489.98C384.02 491.129 381.078 491.703 377.844 491.703C374.633 491.703 371.691 491.129 369.02 489.98C366.348 488.832 364.039 487.18 362.094 485.023C360.148 482.844 358.637 480.207 357.559 477.113C356.504 474.02 355.977 470.527 355.977 466.637V464.211C355.977 460.297 356.504 456.805 357.559 453.734C358.637 450.641 360.137 448.004 362.059 445.824C363.98 443.645 366.277 441.98 368.949 440.832C371.621 439.684 374.562 439.109 377.773 439.109C381.008 439.109 383.949 439.684 386.598 440.832C389.27 441.98 391.578 443.645 393.523 445.824C395.469 448.004 396.969 450.641 398.023 453.734C399.078 456.805 399.605 460.297 399.605 464.211ZM388.953 466.637V464.141C388.953 461.422 388.695 459.031 388.18 456.969C387.688 454.906 386.961 453.172 386 451.766C385.062 450.359 383.902 449.305 382.52 448.602C381.137 447.875 379.555 447.512 377.773 447.512C375.992 447.512 374.41 447.875 373.027 448.602C371.645 449.305 370.484 450.359 369.547 451.766C368.609 453.172 367.895 454.906 367.402 456.969C366.91 459.031 366.664 461.422 366.664 464.141V466.637C366.664 469.332 366.91 471.723 367.402 473.809C367.895 475.871 368.609 477.617 369.547 479.047C370.508 480.453 371.68 481.52 373.062 482.246C374.469 482.973 376.062 483.336 377.844 483.336C379.625 483.336 381.195 482.973 382.555 482.246C383.938 481.52 385.098 480.453 386.035 479.047C386.996 477.617 387.723 475.871 388.215 473.809C388.707 471.723 388.953 469.332 388.953 466.637ZM428.785 439.812V491H418.273V439.812H428.785ZM444.535 439.812V448.074H402.77V439.812H444.535Z" fill="black"/>
</svg>
